<mxfile host="app.diagrams.net" modified="2024-05-30T07:42:01.182Z" agent="Mozilla/5.0 (X11; Linux x86_64) AppleWebKit/537.36 (KHTML, like Gecko) Chrome/118.0.0.0 Safari/537.36" version="24.4.10" etag="cW44vLDbpLDsi2Ked2-Q" type="github">
  <diagram name="Page-1" id="LSGXJPfratOF0aPlRryW">
    <mxGraphModel>
      <root>
        <mxCell id="0" />
        <mxCell id="1" parent="0" />
      </root>
    </mxGraphModel>
  </diagram>
</mxfile>
